<?xml version="1.0" encoding="utf-8"?>
<!-- Generator: Adobe Illustrator 18.1.0, SVG Export Plug-In . SVG Version: 6.00 Build 0)  -->
<svg version="1.1" id="Слой_1" xmlns="http://www.w3.org/2000/svg" xmlns:xlink="http://www.w3.org/1999/xlink" x="0px" y="0px"
	 viewBox="0 0 14 6" enable-background="new 0 0 14 6" xml:space="preserve">
<g>
	<path fill="#08C7AA" d="M11.1,4.8C10,4.8,8.6,4,7.8,3c0.8-1.1,2.2-1.8,3.4-1.8c1.1,0,1.6,0.6,1.6,1.8C12.7,4.2,12.2,4.8,11.1,4.8
		L11.1,4.8z M2.9,4.8C1.8,4.8,1.3,4.2,1.3,3c0-1.2,0.5-1.8,1.6-1.8C4,1.2,5.4,2,6.2,3C5.4,4,4.1,4.8,2.9,4.8L2.9,4.8z M11.1,0
		C9.7,0,8.1,0.8,7,2C5.9,0.8,4.3,0,2.9,0C1.5,0,0,0.8,0,3c0,2.2,1.5,3,2.9,3c1.5,0,3-0.8,4.1-2c1.1,1.2,2.7,2,4.1,2
		C12.5,6,14,5.2,14,3C14,0.8,12.5,0,11.1,0L11.1,0z"/>
</g>
</svg>
