<?xml version="1.0" encoding="utf-8"?>
<!-- Generator: Adobe Illustrator 18.1.0, SVG Export Plug-In . SVG Version: 6.00 Build 0)  -->
<svg version="1.1" id="_x31_" xmlns="http://www.w3.org/2000/svg" xmlns:xlink="http://www.w3.org/1999/xlink" x="0px" y="0px"
	 viewBox="0 0 92 92" enable-background="new 0 0 92 92" xml:space="preserve">
<path fill-rule="evenodd" clip-rule="evenodd" fill="#08C7AA" d="M52.9,51.4h-3.1v3.1h3.1V51.4L52.9,51.4z M47.5,40.6h-3.1v3.1h3.1
	V40.6L47.5,40.6z M52.9,46h-3.1v3.1h3.1V46L52.9,46z M52.9,40.6h-3.1v3.1h3.1V40.6L52.9,40.6z M58.2,40.6h-3.1v3.1h3.1V40.6
	L58.2,40.6z M58.2,46h-3.1v3.1h3.1V46L58.2,46z M47.5,46h-3.1v3.1h3.1V46L47.5,46z M42.2,40.6h-3.1v3.1h3.1V40.6L42.2,40.6z
	 M36.8,46h-3.1v3.1h3.1V46L36.8,46z M42.2,51.4h-3.1v3.1h3.1V51.4L42.2,51.4z M36.8,51.4h-3.1v3.1h3.1V51.4L36.8,51.4z M42.2,46
	h-3.1v3.1h3.1V46L42.2,46z M47.5,51.4h-3.1v3.1h3.1V51.4L47.5,51.4z M57.5,27.6h6.9v33.7H27.6V27.6h6.9v-3.1h1.5v3.1h19.9v-3.1h1.5
	V27.6L57.5,27.6z M62.8,59.8H29.2V36.8h33.7V59.8L62.8,59.8z M62.8,35.3v-6.1h-5.4v1.5h-1.5v-1.5H36.1v1.5h-1.5v-1.5h-5.4v6.1H62.8z
	"/>
<path fill-rule="evenodd" clip-rule="evenodd" fill="#08C7AA" d="M46,0c12.7,0,24.2,5.1,32.5,13.5C86.9,21.8,92,33.3,92,46
	c0,12.7-5.1,24.2-13.5,32.5C70.2,86.9,58.7,92,46,92c-12.7,0-24.2-5.1-32.5-13.5C5.1,70.2,0,58.7,0,46c0-12.7,5.1-24.2,13.5-32.5
	C21.8,5.1,33.3,0,46,0L46,0z M77.1,14.9C69.2,6.9,58.2,2,46,2S22.8,6.9,14.9,14.9C6.9,22.8,2,33.8,2,46c0,12.2,4.9,23.2,12.9,31.1
	c8,8,19,12.9,31.1,12.9c12.2,0,23.2-4.9,31.1-12.9c8-8,12.9-19,12.9-31.1S85.1,22.8,77.1,14.9z"/>
</svg>
