<?xml version="1.0" encoding="utf-8"?>
<!-- Generator: Adobe Illustrator 18.1.0, SVG Export Plug-In . SVG Version: 6.00 Build 0)  -->
<svg version="1.1" id="_x31_" xmlns="http://www.w3.org/2000/svg" xmlns:xlink="http://www.w3.org/1999/xlink" x="0px" y="0px"
	 viewBox="0 0 46 50" enable-background="new 0 0 46 50" xml:space="preserve">
<path fill-rule="evenodd" clip-rule="evenodd" fill="#08C7AA" d="M34.8,17.1L23,23.7l-9.7-5.4c0-0.1,0-0.1,0-0.1V8.7l4.7,4.5
	c0.2,0.2,0.5,0.3,0.8,0.3c0.3,0,0.6-0.1,0.8-0.3c0.4-0.4,0.4-1,0-1.4L13,5.5c0,0,0,0,0,0l-0.8-0.7l-0.8,0.7L5,11.7
	c-0.4,0.4-0.4,1,0,1.5c0.4,0.4,1.1,0.4,1.5,0l4.7-4.5v8.4l-8.9-4.9l4.4-4.1L0,11.9v25.4L23,50l23-12.7V11.9L25.1,0.2v1.9l18.4,10.3
	L34.8,17.1L34.8,17.1z M1.7,13.8L22,24.9c0,0.1,0.1,0.2,0.1,0.2v22.5L1.7,36.3V13.8L1.7,13.8z M23.9,47.6V25.2
	c0.1-0.1,0.1-0.1,0.1-0.2l20.3-11.1v22.5L23.9,47.6z"/>
</svg>
