<?xml version="1.0" encoding="utf-8"?>
<!-- Generator: Adobe Illustrator 18.1.0, SVG Export Plug-In . SVG Version: 6.00 Build 0)  -->
<svg version="1.1" id="Слой_1" xmlns="http://www.w3.org/2000/svg" xmlns:xlink="http://www.w3.org/1999/xlink" x="0px" y="0px"
	 viewBox="0 0 90 90" enable-background="new 0 0 90 90" xml:space="preserve">
<g>
	<path fill="#08C7AA" d="M45,0c12.4,0,23.7,5,31.8,13.2C85,21.3,90,32.6,90,45c0,12.4-5,23.7-13.2,31.8S57.4,90,45,90
		c-12.4,0-23.7-5-31.8-13.2C5,68.7,0,57.4,0,45c0-12.4,5-23.7,13.2-31.8C21.3,5,32.6,0,45,0L45,0z M75.4,14.6
		C67.7,6.8,56.9,1.9,45,1.9c-11.9,0-22.7,4.8-30.4,12.6C6.8,22.3,1.9,33.1,1.9,45c0,11.9,4.8,22.7,12.6,30.4
		c7.8,7.8,18.6,12.6,30.4,12.6c11.9,0,22.7-4.8,30.4-12.6c7.8-7.8,12.6-18.6,12.6-30.4C88.1,33.1,83.2,22.3,75.4,14.6L75.4,14.6z"/>
	<path fill="#08C7AA" d="M60.5,35.9c0,0,0-0.1,0-0.1c0,0,0,0,0-0.1c0-0.1-0.1-0.1-0.1-0.2L45.5,20.8c0,0-0.1-0.1-0.2-0.1
		c0,0,0,0-0.1,0c0,0-0.1,0-0.1,0c0,0,0,0,0,0H30c-0.3,0-0.5,0.2-0.5,0.5v39.1c0,0.3,0.2,0.5,0.5,0.5H60c0.3,0,0.5-0.2,0.5-0.5
		L60.5,35.9C60.5,35.9,60.5,35.9,60.5,35.9L60.5,35.9z M45.7,22.5l12.9,12.9H45.7V22.5L45.7,22.5z M30.6,59.7v-38h14V36
		c0,0.3,0.2,0.5,0.5,0.5h14.3v23.2H30.6L30.6,59.7z"/>
	<polygon fill="#08C7AA" points="35,41.2 55,41.2 55,40.1 35,40.1 35,41.2 	"/>
	<polygon fill="#08C7AA" points="35,45.6 55,45.6 55,44.5 35,44.5 35,45.6 	"/>
	<polygon fill="#08C7AA" points="35,50 55,50 55,48.9 35,48.9 35,50 	"/>
	<polygon fill="#08C7AA" points="35,54.4 55,54.4 55,53.3 35,53.3 35,54.4 	"/>
</g>
</svg>
