<?xml version="1.0" encoding="UTF-8"?>
<!DOCTYPE svg PUBLIC "-//W3C//DTD SVG 1.1//EN" "http://www.w3.org/Graphics/SVG/1.1/DTD/svg11.dtd">
<!-- Creator: CorelDRAW X7 -->
<svg xmlns="http://www.w3.org/2000/svg" xml:space="preserve" width="300px" height="40px" version="1.1" style="shape-rendering:geometricPrecision; text-rendering:geometricPrecision; image-rendering:optimizeQuality; fill-rule:evenodd; clip-rule:evenodd"
viewBox="0 0 300 40"
 xmlns:xlink="http://www.w3.org/1999/xlink">
 <defs>
  <style type="text/css">
   <![CDATA[
    .fil0 {fill:#08C7AA;fill-rule:nonzero}
    .fil1 {fill:#FEFEFE;fill-rule:nonzero}
   ]]>
  </style>
 </defs>
 <g id="Слой_x0020_1">
  <metadata id="CorelCorpID_0Corel-Layer"/>
  <g id="_838936432">
   <path class="fil0" d="M165 27c-5,0 -11,-4 -15,-9 4,-5 10,-8 15,-8 5,0 8,2 8,8 0,6 -3,9 -8,9zm-38 0c-5,0 -8,-3 -8,-9 0,-6 3,-8 8,-8 5,0 12,3 15,8 -3,5 -10,9 -15,9zm38 -23c-7,0 -14,3 -19,9 -5,-5 -12,-9 -19,-9 -7,0 -13,3 -13,14 0,11 6,14 13,14 7,0 14,-3 19,-9 5,6 12,9 19,9 7,0 14,-3 14,-14 0,-11 -7,-14 -14,-14z"/>
   <polygon class="fil1" points="0,32 2,32 2,0 0,0 "/>
   <path class="fil1" d="M10 17l0 15 -2 0 0 -19 2 0 0 1c2,-2 3,-3 6,-3 2,0 4,1 5,3 2,1 3,3 3,5l0 13 -2 0 0 -13c0,-1 -1,-3 -2,-4 -1,-1 -3,-2 -4,-2 -2,0 -3,1 -5,2 0,1 -1,1 -1,2z"/>
   <path class="fil1" d="M32 14l0 18 -1 0 0 -18 -2 0 0 -1 2 0 0 -6c0,-1 0,-3 1,-4 1,-1 3,-1 4,-1 1,0 2,0 2,0l0 2c-1,0 -1,0 -2,0 -1,0 -2,0 -2,1 -1,0 -2,1 -2,2l0 6 4 0 0 1 -4 0z"/>
   <path class="fil1" d="M42 13l0 19 -2 0 0 -19 2 0zm0 -7c1,0 1,1 1,1 0,1 0,1 -1,2 0,0 0,0 -1,0 0,0 -1,0 -1,0 -1,-1 -1,-1 -1,-2 0,0 0,-1 1,-1 0,0 1,0 1,0 1,0 1,0 1,0z"/>
   <path class="fil1" d="M50 17l0 15 -2 0 0 -19 2 0 0 1c2,-2 4,-3 6,-3 2,0 4,1 6,3 1,1 2,3 2,5l0 13 -2 0 0 -13c0,-1 0,-3 -2,-4 -1,-1 -2,-2 -4,-2 -2,0 -3,1 -4,2 -1,1 -1,1 -2,2z"/>
   <path class="fil1" d="M72 13l0 19 -2 0 0 -19 2 0zm1 -7c0,0 0,1 0,1 0,1 0,1 0,2 -1,0 -1,0 -2,0 0,0 -1,0 -1,0 0,-1 0,-1 0,-2 0,0 0,-1 0,-1 0,0 1,0 1,0 1,0 1,0 2,0z"/>
   <polygon class="fil1" points="82,13 82,4 83,4 83,13 87,13 87,14 83,14 83,32 82,32 82,14 78,14 78,13 "/>
   <polygon class="fil1" points="99,31 95,40 93,40 98,29 91,13 93,13 99,27 106,13 108,13 99,31 "/>
   <path class="fil1" d="M186 2l0 28 0 0c5,0 9,-1 11,-3 3,-3 4,-7 4,-11 0,-4 -1,-7 -4,-10 -2,-3 -6,-4 -11,-4l0 0zm0 -2l0 0c5,0 10,2 12,5 4,3 5,7 5,11 0,5 -1,9 -5,12 -2,3 -7,4 -12,4l0 0 0 0 -2 0 0 -32 2 0 0 0z"/>
   <path class="fil1" d="M224 15c-2,-2 -4,-2 -6,-2 -2,0 -4,1 -6,2 -2,2 -3,4 -3,7 0,2 1,4 2,5l13 -12zm-12 14c2,1 4,2 6,2 3,0 5,-1 7,-3 0,0 0,0 0,0l2 0c0,1 0,1 -1,2 -2,2 -5,3 -8,3 -3,0 -5,-1 -8,-3 -2,-3 -3,-5 -3,-8 0,-3 1,-6 3,-8 3,-2 5,-3 8,-3 3,0 5,1 7,2 0,0 1,1 1,1 0,0 0,0 0,0l-1 2 -13 13z"/>
   <path class="fil1" d="M238 22c-2,-1 -3,-1 -4,-2 -1,-1 -1,-2 -1,-3 0,-2 0,-3 1,-4 1,-1 2,-1 4,-1 1,0 2,0 3,1 1,1 1,2 1,3l0 0 -1 1c0,-1 -1,-2 -1,-2 -1,-1 -1,-1 -2,-1 -1,0 -2,0 -2,1 -1,0 -1,1 -1,2 0,0 0,1 1,2 0,0 1,1 2,1 2,1 3,2 3,3 2,1 2,2 2,4 0,2 0,3 -2,4 -1,1 -2,2 -4,2 -1,0 -3,-1 -4,-2 -1,-1 -2,-2 -2,-4l2 0c0,1 1,2 1,3 1,1 2,1 3,1 1,0 2,0 3,-1 1,-1 1,-2 1,-3 0,-1 0,-2 -1,-3 0,0 -1,-1 -2,-2z"/>
   <path class="fil1" d="M251 13l0 19 -2 0 0 -19 2 0zm0 -7c0,0 0,1 0,1 0,1 0,1 0,2 0,0 -1,0 -1,0 -1,0 -1,0 -2,0 0,-1 0,-1 0,-2 0,0 0,-1 0,-1 1,0 1,0 2,0 0,0 1,0 1,0z"/>
   <path class="fil1" d="M277 20c-1,-2 -2,-3 -3,-5 -2,-1 -4,-2 -6,-2 -3,0 -5,1 -7,2 -2,2 -3,4 -3,7 0,2 1,5 3,6 2,2 4,3 7,3 2,0 4,-1 6,-3 1,-1 2,-3 3,-4l0 -4zm0 8c-1,1 -1,1 -1,2 -3,2 -5,3 -8,3 -3,0 -6,-1 -8,-3 -2,-3 -3,-5 -3,-8 0,-3 1,-6 3,-8 2,-2 5,-3 8,-3 3,0 5,1 8,3 0,0 0,1 1,1l0 -2 1 0 0 15c0,3 -1,5 -3,8 -2,2 -4,3 -8,3 -3,0 -5,-1 -7,-3 -1,-1 -1,-1 -2,-2l2 -1c1,1 1,1 1,1 2,2 4,3 6,3 3,0 5,-1 7,-3 2,-1 2,-3 3,-6z"/>
   <path class="fil1" d="M286 17l0 15 -1 0 0 -19 1 0 0 1c2,-2 4,-3 6,-3 3,0 4,1 6,3 1,1 2,3 2,5l0 13 -2 0 0 -13c0,-1 0,-3 -1,-4 -2,-1 -3,-2 -5,-2 -1,0 -3,1 -4,2 -1,1 -1,1 -2,2z"/>
  </g>
 </g>
</svg>
