<?xml version="1.0" encoding="utf-8"?>
<!-- Generator: Adobe Illustrator 18.1.0, SVG Export Plug-In . SVG Version: 6.00 Build 0)  -->
<svg version="1.1" id="Слой_1" xmlns="http://www.w3.org/2000/svg" xmlns:xlink="http://www.w3.org/1999/xlink" x="0px" y="0px"
	 viewBox="0 0 33 33" enable-background="new 0 0 33 33" xml:space="preserve">
<g>
	<path d="M19.3,12.7l0.3,0.3L19,13.5l-0.3-0.3L16.6,11l-2.4,2.3l-0.3,0.3L13.3,13l0.3-0.3l2.7-2.6c0.2-0.2,0.4-0.2,0.6,0L19.3,12.7
		L19.3,12.7z"/>
	<polygon points="17,10.4 17,16.7 16.2,16.7 16.2,10.4 17,10.4 	"/>
	<path fill-rule="evenodd" clip-rule="evenodd" d="M30.5,11.5V7.4h-5.1l-8.9-7.1L7.6,7.4H2.5v4.1l-2.4,1.9v19.4h32.8V13.3L30.5,11.5
		L30.5,11.5L30.5,11.5z M11.5,22.9L1.1,31.3V14.7L11.5,22.9L11.5,22.9L11.5,22.9z M16.5,20.2l14.4,11.6H2.1L16.5,20.2L16.5,20.2
		L16.5,20.2z M21.5,22.9l10.4-8.3v16.6L21.5,22.9L21.5,22.9L21.5,22.9z M31.6,13.6l-1.1,0.9v-1.7L31.6,13.6L31.6,13.6L31.6,13.6z
		 M16.5,1.5l7.3,5.8H9.2L16.5,1.5L16.5,1.5L16.5,1.5z M29.5,8.4v6.9l-8.8,7l-4.3-3.4l-4.2,3.4l-8.8-7V8.4H29.5L29.5,8.4L29.5,8.4z
		 M2.5,14.5l-1.1-0.9l1.1-0.9V14.5L2.5,14.5L2.5,14.5z"/>
</g>
</svg>
