<?xml version="1.0" encoding="utf-8"?>
<!-- Generator: Adobe Illustrator 18.1.0, SVG Export Plug-In . SVG Version: 6.00 Build 0)  -->
<svg version="1.1" id="Слой_1" xmlns="http://www.w3.org/2000/svg" xmlns:xlink="http://www.w3.org/1999/xlink" x="0px" y="0px"
	 viewBox="0 0 92 92" enable-background="new 0 0 92 92" xml:space="preserve">
<g>
	<path fill="#08C7AA" d="M54.5,46.3c-1.8,0-3.3,1.5-3.3,3.3c0,1.8,1.5,3.3,3.3,3.3c1.8,0,3.3-1.5,3.3-3.3
		C57.8,47.8,56.4,46.3,54.5,46.3L54.5,46.3z M54.5,51.6c-1.1,0-2-0.9-2-2c0-1.1,0.9-2,2-2c1.1,0,2,0.9,2,2
		C56.6,50.7,55.7,51.6,54.5,51.6L54.5,51.6z"/>
	<path fill="#08C7AA" d="M60.1,37h-3v-2.5c0-2.4-1.9-4.3-4.3-4.3H31.6c-2.2,0-4,1.8-4,4c0,0,0,0.1,0,0.1v0c0,0.1,0,0.1,0,0.2v22.6
		c0,2.4,1.9,4.3,4.3,4.3h28.2c2.4,0,4.3-1.9,4.3-4.3V41.3C64.4,38.9,62.5,37,60.1,37L60.1,37z M55.8,34.5V37H31.6
		c-1.5,0-2.7-1.2-2.7-2.7c0.1-1.6,1.4-2.9,3-2.9h20.9C54.5,31.5,55.8,32.8,55.8,34.5L55.8,34.5z M63.1,57.1c0,1.7-1.4,3-3,3H31.9
		c-1.7,0-3-1.4-3-3V37.2c0,0,0.1,0.1,0.1,0.1c0,0,0.1,0.1,0.1,0.1c0.1,0,0.1,0.1,0.2,0.1c0,0,0.1,0.1,0.1,0.1c0.1,0,0.1,0.1,0.2,0.1
		c0.1,0,0.1,0.1,0.2,0.1c0.1,0,0.1,0.1,0.2,0.1c0.1,0,0.1,0.1,0.2,0.1c0.1,0,0.1,0,0.2,0.1c0.1,0,0.1,0,0.2,0.1c0.1,0,0.1,0,0.2,0.1
		c0.1,0,0.1,0,0.2,0c0.1,0,0.2,0,0.3,0c0,0,0.1,0,0.1,0c0.1,0,0.3,0,0.4,0h24.6c0,0,0,0,0.1,0c0,0,0.1,0,0.1,0c0,0,0,0,0.1,0
		c0.1,0,0.2,0,0.4,0h3.2c1.7,0,3,1.4,3,3V57.1L63.1,57.1z"/>
	<path fill="#08C7AA" d="M46,0.4c12.5,0,23.8,5.1,32,13.3c8.2,8.2,13.2,19.6,13.2,32.1c0,12.5-5.1,23.9-13.2,32.1
		c-8.2,8.2-19.5,13.3-32,13.3c-12.5,0-23.8-5.1-32-13.3C5.8,69.7,0.8,58.3,0.8,45.8c0-12.5,5.1-23.9,13.2-32.1
		C22.2,5.5,33.5,0.4,46,0.4L46,0.4z M76.6,15.1C68.8,7.2,57.9,2.3,46,2.3c-11.9,0-22.8,4.9-30.6,12.7C7.6,22.9,2.7,33.8,2.7,45.8
		c0,12,4.8,22.9,12.7,30.7c7.8,7.9,18.6,12.7,30.6,12.7c11.9,0,22.8-4.9,30.6-12.7c7.8-7.9,12.7-18.7,12.7-30.7
		C89.3,33.8,84.4,22.9,76.6,15.1L76.6,15.1z"/>
</g>
</svg>
