<?xml version="1.0" encoding="utf-8"?>
<!-- Generator: Adobe Illustrator 18.1.0, SVG Export Plug-In . SVG Version: 6.00 Build 0)  -->
<svg version="1.1" id="_x31_" xmlns="http://www.w3.org/2000/svg" xmlns:xlink="http://www.w3.org/1999/xlink" x="0px" y="0px"
	 viewBox="0 0 46 72" enable-background="new 0 0 46 72" xml:space="preserve">
<path fill-rule="evenodd" clip-rule="evenodd" fill="#08C7AA" d="M36.9,26.8v2l6.6,4l-8.7,5V4l4.7,4.7c0.2,0.2,0.5,0.3,0.8,0.3
	c0.3,0,0.5-0.1,0.8-0.3c0.4-0.4,0.4-1.1,0-1.5l-6.5-6.5l-0.8-0.8l-7.3,7.3c-0.4,0.4-0.4,1.1,0,1.5c0.4,0.4,1.1,0.4,1.5,0L32.7,4
	v34.8c0,0.1,0,0.1,0,0.1l-8.7,5V16.4l4.7,4.7c0.2,0.2,0.5,0.3,0.8,0.3c0.3,0,0.5-0.1,0.8-0.3c0.4-0.4,0.4-1.1,0-1.5L23,12.3
	l-0.8,0.8l0,0l-6.5,6.5c-0.4,0.4-0.4,1.1,0,1.5c0.4,0.4,1.1,0.4,1.5,0l4.7-4.7v27.5l-8.7-5c0-0.1,0-0.1,0-0.1v-9.9l4.7,4.7
	c0.2,0.2,0.5,0.3,0.8,0.3c0.3,0,0.6-0.1,0.8-0.3c0.4-0.4,0.4-1.1,0-1.5L13,25.5c0,0,0,0,0,0l-0.8-0.8l-0.8,0.8L5,32
	c-0.4,0.4-0.4,1.1,0,1.5c0.4,0.4,1.1,0.4,1.5,0l4.7-4.7v8.8l-8.9-5.1l4.4-4.3l-6.7,3.9v26.6l23,13.3l23.1-13.3V32.2L36.9,26.8
	L36.9,26.8z M1.6,34.3L22,45.9c0,0.1,0.1,0.2,0.1,0.2v23.5L1.6,57.9V34.3L1.6,34.3z M23.9,69.7V46.1c0.1-0.1,0.1-0.1,0.1-0.2
	l20.4-11.7v23.6L23.9,69.7z"/>
</svg>
