<?xml version="1.0" encoding="utf-8"?>
<!-- Generator: Adobe Illustrator 18.1.0, SVG Export Plug-In . SVG Version: 6.00 Build 0)  -->
<svg version="1.1" id="_x31_" xmlns="http://www.w3.org/2000/svg" xmlns:xlink="http://www.w3.org/1999/xlink" x="0px" y="0px"
	 viewBox="0 0 46 59" enable-background="new 0 0 46 59" xml:space="preserve">
<g>
	<path fill-rule="evenodd" clip-rule="evenodd" fill="#08C7AA" d="M36.8,14.2v1.9l6.6,3.9c-2.9,1.6-5.8,3.3-8.6,5l-2.1,1.2l-8.6,4.9
		V3.9l4.6,4.6c0.4,0.4,1.1,0.4,1.5,0c0.4-0.4,0.4-1.1,0-1.5L23-0.1l-7.2,7.2c-0.4,0.4-0.4,1.1,0,1.5c0.4,0.4,1.1,0.4,1.5,0l4.6-4.6
		v27.2l-8.6-4.9c0-0.1,0-0.1,0-0.1v-9.8l4.6,4.6c0.4,0.4,1.1,0.4,1.5,0c0.4-0.4,0.4-1.1,0-1.5L13.1,13c0,0-0.7-0.7-0.8-0.7l-7.2,7.2
		c-0.4,0.4-0.4,1.1,0,1.5c0.4,0.4,1.1,0.4,1.5,0l4.6-4.6V25L2.4,20l4.3-4.2l-6.6,3.8V46L23,59.1L45.8,46V19.6L36.8,14.2L36.8,14.2z
		 M32.7,6L32.7,6L32.7,6L32.7,6z M1.8,21.6L22,33.1c0,0.1,0.1,0.2,0.1,0.2v23.3L1.8,45V21.6L1.8,21.6z M23.8,56.7V33.4
		c0.1-0.1,0.1-0.1,0.1-0.2l20.2-11.6V45L23.8,56.7z"/>
</g>
</svg>
