<?xml version="1.0" encoding="utf-8"?>
<!-- Generator: Adobe Illustrator 18.1.0, SVG Export Plug-In . SVG Version: 6.00 Build 0)  -->
<svg version="1.1" id="Слой_1" xmlns="http://www.w3.org/2000/svg" xmlns:xlink="http://www.w3.org/1999/xlink" x="0px" y="0px"
	 viewBox="0 0 90 90" enable-background="new 0 0 90 90" xml:space="preserve">
<g>
	<path fill="#08C7AA" d="M59.6,59.5c-0.5-0.5-1.3-1.4-2.1-2.6c-0.6-0.9-1.1-1.9-1.6-3.1c-0.4-1-0.7-2.2-1-3.5
		c-0.2-1.2-0.3-2.4-0.3-3.8v-3.9c0-1-0.1-1.9-0.4-2.8c-0.3-0.9-0.7-1.8-1.2-2.6c-0.5-0.8-1.2-1.5-1.9-2.1c-0.7-0.6-1.6-1.1-2.5-1.4
		l-0.9-0.3l0.6-0.7c0.3-0.4,0.5-0.8,0.6-1.2c0.1-0.4,0.2-0.9,0.2-1.3c0-1.1-0.5-2.2-1.2-2.9c-0.8-0.8-1.8-1.2-2.9-1.2
		c-1.1,0-2.2,0.5-2.9,1.2c-0.8,0.8-1.2,1.8-1.2,2.9c0,0.5,0.1,0.9,0.2,1.3c0.1,0.4,0.4,0.8,0.6,1.2l0.6,0.7l-0.9,0.3
		c-0.9,0.4-1.7,0.8-2.5,1.4c-0.7,0.6-1.4,1.3-1.9,2.1c-0.5,0.8-0.9,1.6-1.2,2.6c-0.3,0.9-0.4,1.8-0.4,2.8v3.9c0,1.4-0.1,2.6-0.3,3.8
		c-0.2,1.3-0.6,2.5-1,3.5c-0.5,1.2-1,2.3-1.6,3.1c-0.8,1.2-1.6,2.1-2.1,2.6c-0.1,0.1-0.1,0.2-0.2,0.3c0,0.1,0,0.2,0,0.4
		c0,0.1,0.1,0.2,0.2,0.3c0.1,0.1,0.2,0.1,0.3,0.1h10l0.1,0.5c0.3,0.9,0.8,1.7,1.5,2.2c0.7,0.5,1.6,0.8,2.5,0.8
		c0.9,0,1.8-0.3,2.5-0.8c0.7-0.5,1.2-1.3,1.5-2.2l0.1-0.5h10c0.1,0,0.2,0,0.3-0.1c0.1-0.1,0.2-0.2,0.2-0.3c0-0.1,0.1-0.2,0-0.4
		C59.7,59.7,59.7,59.6,59.6,59.5L59.6,59.5z M57.2,53.3c0.4,1.1,0.9,2.1,1.5,2.9c0.7,1.1,1.4,1.9,1.9,2.3c0.3,0.3,0.5,0.6,0.6,1
		c0.1,0.4,0.1,0.8-0.1,1.2c-0.2,0.4-0.4,0.7-0.7,0.9C60,61.8,59.6,62,59.2,62h-9c-0.4,1-1.1,1.9-1.9,2.5c-0.9,0.7-2.1,1.1-3.3,1.1
		c-1.2,0-2.3-0.4-3.3-1.1c-0.8-0.6-1.5-1.5-1.9-2.5h-9c-0.4,0-0.8-0.1-1.1-0.3c-0.3-0.2-0.6-0.5-0.7-0.9c-0.2-0.4-0.2-0.8-0.1-1.2
		c0.1-0.3,0.2-0.6,0.4-0.9v0l0.2-0.1c0.5-0.5,1.2-1.2,1.9-2.3c0.5-0.8,1-1.7,1.5-2.9c0.3-0.9,0.6-1.9,0.8-3c0.2-1.1,0.3-2.4,0.3-3.7
		v-3.9c0-2.2,0.7-4.3,1.8-6c1.1-1.6,2.5-2.9,4.3-3.8c-0.2-0.3-0.3-0.7-0.4-1c-0.2-0.5-0.3-1.1-0.3-1.7c0-1.5,0.6-2.9,1.6-3.9
		c1-1,2.4-1.6,3.9-1.6c1.5,0,2.9,0.6,3.9,1.6s1.6,2.4,1.6,3.9c0,0.6-0.1,1.1-0.3,1.7c-0.1,0.4-0.3,0.7-0.4,1
		c1.8,0.9,3.3,2.2,4.3,3.8c1.2,1.8,1.8,3.9,1.8,6v3.9c0,1.3,0.1,2.5,0.3,3.5C56.5,51.3,56.8,52.3,57.2,53.3L57.2,53.3z M45,62.9
		c-0.5,0-0.9-0.1-1.3-0.3c-0.4-0.2-0.8-0.5-1-0.9l-0.8-1.1h6.4l-0.8,1.1c-0.3,0.4-0.6,0.7-1,0.9C45.9,62.8,45.5,62.9,45,62.9
		L45,62.9z"/>
	<path fill="#08C7AA" d="M45,0c12.4,0,23.7,5,31.8,13.2C85,21.3,90,32.6,90,45c0,12.4-5,23.7-13.2,31.8C68.7,85,57.4,90,45,90
		c-12.4,0-23.7-5-31.8-13.2C5,68.7,0,57.4,0,45c0-12.4,5-23.7,13.2-31.8C21.3,5,32.6,0,45,0L45,0z M75.4,14.6
		C67.7,6.8,56.9,1.9,45,1.9c-11.9,0-22.7,4.8-30.4,12.6C6.8,22.3,1.9,33.1,1.9,45c0,11.9,4.8,22.7,12.6,30.4
		c7.8,7.8,18.6,12.6,30.4,12.6c11.9,0,22.7-4.8,30.4-12.6c7.8-7.8,12.6-18.6,12.6-30.4C88.1,33.1,83.2,22.3,75.4,14.6L75.4,14.6z"/>
</g>
</svg>
