<?xml version="1.0" encoding="utf-8"?>
<!-- Generator: Adobe Illustrator 18.1.0, SVG Export Plug-In . SVG Version: 6.00 Build 0)  -->
<svg version="1.1" id="Слой_1" xmlns="http://www.w3.org/2000/svg" xmlns:xlink="http://www.w3.org/1999/xlink" x="0px" y="0px"
	 viewBox="0 0 18 16" enable-background="new 0 0 18 16" xml:space="preserve">
<g>
	<path fill="#08C7AA" d="M17,6.6l-5.7-5.7c-0.8-0.8-2.1-0.8-2.8,0h0c-0.8,0.8-0.8,2,0,2.8L10.8,6H2.4c-1.1,0-2,0.9-2,2
		c0,1.1,0.9,2,2,2h8.3l-2.2,2.2c-0.8,0.8-0.8,2.1,0,2.8c0.8,0.8,2,0.8,2.8,0L17,9.4C17.8,8.6,17.8,7.4,17,6.6L17,6.6L17,6.6z"/>
</g>
</svg>
