<?xml version="1.0" encoding="utf-8"?>
<!-- Generator: Adobe Illustrator 18.1.0, SVG Export Plug-In . SVG Version: 6.00 Build 0)  -->
<svg version="1.1" id="Слой_1" xmlns="http://www.w3.org/2000/svg" xmlns:xlink="http://www.w3.org/1999/xlink" x="0px" y="0px"
	 viewBox="0 0 90 90" enable-background="new 0 0 90 90" xml:space="preserve">
<g>
	<path fill="#08C7AA" d="M45,0c12.4,0,23.7,5,31.8,13.2C85,21.3,90,32.6,90,45c0,12.4-5,23.7-13.2,31.8S57.4,90,45,90
		c-12.4,0-23.7-5-31.8-13.2C5,68.7,0,57.4,0,45c0-12.4,5-23.7,13.2-31.8C21.3,5,32.6,0,45,0L45,0z M75.4,14.6
		C67.7,6.8,56.9,1.9,45,1.9c-11.9,0-22.7,4.8-30.4,12.6C6.8,22.3,1.9,33.1,1.9,45c0,11.9,4.8,22.7,12.6,30.4
		c7.8,7.8,18.6,12.6,30.4,12.6c11.9,0,22.7-4.8,30.4-12.6c7.8-7.8,12.6-18.6,12.6-30.4C88.1,33.1,83.2,22.3,75.4,14.6L75.4,14.6z"/>
	<path fill="#08C7AA" d="M62.7,32.7h-2.3v-2.4c0-2.9-2.3-5.2-5.2-5.2H27.3c-2.9,0-5.2,2.3-5.2,5.2v16.4c0,2.9,2.3,5.2,5.2,5.2h2.3
		v2.4c0,2.9,2.3,5.2,5.2,5.2h21.1l4.4,5.2c0.2,0.2,0.4,0.3,0.6,0.3c0.1,0,0.2,0,0.3,0c0.3-0.1,0.5-0.4,0.5-0.7v-4.7h1.1
		c2.9,0,5.2-2.3,5.2-5.2V37.9C67.9,35,65.6,32.7,62.7,32.7L62.7,32.7z M27.3,50.3c-2,0-3.6-1.6-3.6-3.6V30.3c0-2,1.6-3.6,3.6-3.6
		h27.9c2,0,3.6,1.6,3.6,3.6v2.4h-24c-2.9,0-5.2,2.3-5.2,5.2v12.4H27.3L27.3,50.3z M66.3,54.2c0,2-1.6,3.6-3.6,3.6h-1.9
		c-0.4,0-0.8,0.4-0.8,0.8V62l-3.2-3.8c-0.1-0.2-0.4-0.3-0.6-0.3H34.8c-2,0-3.6-1.6-3.6-3.6V37.9c0-2,1.6-3.6,3.6-3.6h27.9
		c2,0,3.6,1.6,3.6,3.6V54.2L66.3,54.2z"/>
	<polygon fill="#08C7AA" points="38.4,39.5 45.3,39.5 45.3,41.5 38.4,41.5 38.4,39.5 	"/>
	<polygon fill="#08C7AA" points="38.4,45.4 59.2,45.4 59.2,47.4 38.4,47.4 38.4,45.4 	"/>
	<polygon fill="#08C7AA" points="38.4,51.3 59.2,51.3 59.2,53.3 38.4,53.3 38.4,51.3 	"/>
</g>
</svg>
