<?xml version="1.0" encoding="utf-8"?>
<!-- Generator: Adobe Illustrator 18.1.0, SVG Export Plug-In . SVG Version: 6.00 Build 0)  -->
<svg version="1.1" id="Слой_1" xmlns="http://www.w3.org/2000/svg" xmlns:xlink="http://www.w3.org/1999/xlink" x="0px" y="0px"
	 viewBox="0 0 90 90" enable-background="new 0 0 90 90" xml:space="preserve">
<g>
	<path fill="#08C7AA" d="M45,0c12.4,0,23.7,5,31.8,13.2C85,21.3,90,32.6,90,45c0,12.4-5,23.7-13.2,31.8C68.7,85,57.4,90,45,90
		c-12.4,0-23.7-5-31.8-13.2C5,68.7,0,57.4,0,45c0-12.4,5-23.7,13.2-31.8C21.3,5,32.6,0,45,0L45,0z M75.4,14.6
		C67.7,6.8,56.9,1.9,45,1.9c-11.9,0-22.7,4.8-30.4,12.6C6.8,22.3,1.9,33.1,1.9,45c0,11.9,4.8,22.7,12.6,30.4
		c7.8,7.8,18.6,12.6,30.4,12.6c11.9,0,22.7-4.8,30.4-12.6c7.8-7.8,12.6-18.6,12.6-30.4C88.1,33.1,83.2,22.3,75.4,14.6L75.4,14.6z"/>
	<path fill="#08C7AA" d="M35.5,61.1l0.2-2.8l0.9,0.9c0.3,0.3,0.7,0.3,1,0l25.1-25.1c0.3-0.3,0.3-0.7,0-1l-5.1-5.1L56,26.5
		c-0.1-0.1-0.3-0.2-0.5-0.2h0c-0.2,0-0.3,0.1-0.5,0.2L42.5,39c-0.3,0.3-0.3,0.7,0,1c0.3,0.3,0.7,0.3,1,0l12.1-12.1l0.6,0.6
		L31.5,53.2c-0.3,0.3-0.3,0.7,0,1l1,1l-2.8,0.2c-0.3,0-0.5,0.2-0.6,0.5l-2,7.1c0,0.1,0,0.1,0,0.2v0c0,0,0,0,0,0c0,0.1,0,0.1,0,0.2
		c0,0,0,0,0,0.1c0,0.1,0.1,0.1,0.1,0.2c0.1,0.1,0.1,0.1,0.2,0.1c0,0,0,0,0.1,0c0.1,0,0.1,0,0.2,0c0,0,0,0,0,0c0.1,0,0.1,0,0.2,0
		l7.1-2C35.3,61.6,35.5,61.4,35.5,61.1L35.5,61.1z M61.2,33.6l-7.2,7.2L50,36.6l7.2-7.2L61.2,33.6L61.2,33.6z M49,37.6l4.1,4.1
		L37.1,57.8l-4.1-4.1L49,37.6L49,37.6z M30.1,61.7l1.3-1.3c0.3-0.3,0.3-0.7,0-1c-0.3-0.3-0.7-0.3-1,0l-1.3,1.3l1.2-4.1l2.4-0.2
		l1.7,1.7l-0.2,2.4L30.1,61.7L30.1,61.7z"/>
</g>
</svg>
