<?xml version="1.0" encoding="utf-8"?>
<!-- Generator: Adobe Illustrator 18.1.0, SVG Export Plug-In . SVG Version: 6.00 Build 0)  -->
<svg version="1.1" id="Слой_1" xmlns="http://www.w3.org/2000/svg" xmlns:xlink="http://www.w3.org/1999/xlink" x="0px" y="0px"
	 viewBox="0 0 33 33" enable-background="new 0 0 33 33" xml:space="preserve">
<g>
	<path fill-rule="evenodd" clip-rule="evenodd" d="M2.2,30.7c-0.2-0.2-0.2-0.3-0.2-0.5c0-0.3,0.1-3.5,1.7-5c0.7-0.7,2.3-1.6,4.6-2.7
		c2.5-1.2,3.9-2,4.4-2.5l1.4-1.3L13,17.1c-1.9-2.3-3-4.9-3-7.1c0-1.6,0-3.5,0.8-5.1c0.9-1.9,2.8-2.8,5.6-2.8c2.8,0,4.7,1,5.6,2.8
		c0.8,1.6,0.8,3.5,0.8,5.1c0,2.1-1.1,4.8-3,7.1l-1.2,1.5l1.4,1.3c0.4,0.3,1,0.7,2,1.3l1.5-1.5c-0.9-0.5-1.8-1-2.1-1.2
		c2.2-2.7,3.5-5.7,3.5-8.4c0-1.8,0-4-1-6C23,2.2,21,0,16.5,0C11.9,0,10,2.2,9,4c-1,2-1,4.2-1,6c0,2.6,1.2,5.7,3.5,8.4
		c-0.5,0.5-2.6,1.6-3.9,2.2c-2.5,1.2-4.2,2.1-5.2,3.1C0.2,25.8,0,29.4,0,30.2v0.1c0,0.7,0.3,1.4,0.8,1.9c0.5,0.5,1.2,0.8,2,0.8h11.7
		v-2.1H2.7C2.6,30.8,2.4,30.8,2.2,30.7L2.2,30.7L2.2,30.7z M31.2,24.3l-1.5,1.5c0.9,1.4,1.2,3.3,1.2,4.3c0,0.2-0.1,0.3-0.2,0.5
		c-0.2,0.2-0.3,0.2-0.5,0.2h-5.5l-2.1,2.1h7.6c0.7,0,1.4-0.3,2-0.8c0.5-0.5,0.8-1.2,0.8-2C32.9,29.4,32.7,26.5,31.2,24.3L31.2,24.3
		L31.2,24.3z M32.3,21.4c0.8-0.8,0.8-2.1,0-2.9L30.8,17c-0.4-0.4-0.9-0.6-1.5-0.6c-0.5,0-1.1,0.2-1.5,0.6l-8.8,8.9
		c-0.4,0.4-1.6,2-1.6,2.5l-1,4.5l4.5-1c0,0,2.1-1.2,2.5-1.6L32.3,21.4L32.3,21.4L32.3,21.4z M21.7,30.2l-2.6-2.6
		c0.2-0.4,0.6-0.7,0.7-0.9l6.7-6.7l2.9,2.9l-6.7,6.7C22.6,29.6,22.2,29.9,21.7,30.2L21.7,30.2L21.7,30.2z"/>
</g>
</svg>
